<svg xmlns="http://www.w3.org/2000/svg" width="400" height="400" viewBox="-100 -2 1103 1023">
	<style>
		/* Generated by less 2.5.1 */

		body {
			font-family: cursive;
		}

		div.body {
			display: flex;
		}

		div.body > * + * {
			margin-left: 1em;
		}

		* {
			font: inherit;
		}

		input[type=text],
		textarea {
			width: 100%;
			box-sizing: border-box;
		}

		textarea {
			overflow-x: hidden;
			white-space: pre;
		}

		col.coches {
			width: 1em;
		}

		col.donnees {
			width: 6em;
		}

		table {
			border-collapse: collapse;
		}

		th,
		td {
			padding: 0;
		}

		#cadre {
			fill: transparent;
			stroke-width: 4px;
			stroke: black;
		}

		.zone {
			fill: rgba(0, 0, 0, 0.05);
			stroke-width: 0px;
			stroke: black;
		}

		#chemin {
			fill: transparent;
			stroke-width: 4px;
			stroke: red;
		}

		#chemin2 {
			fill: transparent;
			stroke-width: 2px;
			stroke: blue;
		}

		#courbe {
			fill: transparent;
			stroke-width: 16px;
			stroke-opacity: .5;
			stroke: green;
		}

	</style>


	<rect id="zonef" class="zone" x="0" y="400" width="1000" height="600"></rect>
	<rect id="zone0" class="zone" x="0" y="0" width="600" height="1000"></rect>
	<rect id="cadre" x="0" y="0" width="1000" height="1000"></rect>
	<path id="chemin" d="M 0,1000 L 1000,0"></path>
<!--	<path id="chemin2" class="test" d="M 0,1000 10,984.8008891704707 20,971.4581700551636 30,958.736622124855 40,946.4023872358864 50,934.3483782756058 60,922.513078069424 70,910.8566137763419 80,899.3510892761948 90,887.9759235415922 100,876.7153260557934 110,865.5568112228399 120,854.4902676547033 130,843.5073457418929 140,832.6010383871051 150,821.765384454819 160,810.9952531939775 170,800.2861838250335 180,789.6342637497412 190,779.036034449206 200,768.488417645869 210,757.9886565686221 220,747.5342686583948 230,737.1230070662714 240,726.7528289977789 250,716.4218694511344 260,706.1284192511359 270,695.8709065377241 280,685.6478810579611 290,675.4580007518528 300,665.3000202294483 310,655.1727808183858 320,645.0752019240722 330,635.00627349375 340,624.9650494142281 350,614.9506417035318 360,604.9622153810483 370,594.9989839202592 380,585.0602052039421 390,575.1451779145518 400,565.2532383030065 410,555.3837572877391 420,545.5361378430267 430,535.7098126415513 440,525.9042419211058 450,516.1189115495288 460,506.35333126544646 470,496.60703307538245 480,486.87956979029923 490,477.17051368679677 500,467.47945528001867 510,457.8060021969005 520,448.1497781397479 530,438.51042193130513 540,428.887586633492 550,419.28093873286434 560,409.6901573866287 570,400.11493372370626 580,390.55497019593247 590,381.00997997499474 600,371.4796863911622 610,361.96382241026436 620,352.4621301457264 630,342.9743604027866 640,333.5002722522936 650,324.0396326317333 660,314.59221597135377 670,305.1578038434525 680,295.7361846330663 690,286.3271532284648 700,276.930510729983 710,267.546064175864 720,258.17362628388923 730,248.8130152076826 740,239.46405430666528 750,230.1265719287211 760,220.80040120471165 770,211.48537985404812 780,202.1813500005859 790,192.88815799817314 800,183.60565426522805 810,174.33369312777074 820,165.07213267038117 830,155.82083459458772 840,146.57966408423385 850,137.34848967739788 860,128.12718314447477 870,118.91561937205563 880,109.71367625226378 890,100.52123457723462 900,91.33817793844264 910,82.16439263060408 920,72.99976755989599 930,63.84419415625666 940,54.6975662895411 950,45.559780189324556 960,36.430734368158255 970,27.310329548093364 980,18.198468590303833 990,9.095056427645545 1000,0"></path>-->
<!--	<path id="chemin2" class="test" d="M 0,1000 10,984.8008891704707 20,971.4581700551636 30,958.736622124855 40,946.4023872358864 50,934.3483782756058 60,922.513078069424 70,910.8566137763419 80,899.3510892761948 90,887.9759235415922 100,876.7153260557934 110,865.5568112228399 120,854.4902676547033 130,843.5073457418929 140,832.6010383871051 150,821.765384454819 160,810.9952531939775 170,800.2861838250335 180,789.6342637497412 190,779.036034449206 200,768.488417645869 210,757.9886565686221 220,747.5342686583948 230,737.1230070662714 240,726.7528289977789 250,716.4218694511344 260,706.1284192511359 270,695.8709065377241 280,685.6478810579611 290,675.4580007518528 300,665.3000202294483 310,655.1727808183858 320,645.0752019240722 330,635.00627349375 340,624.9650494142281 350,614.9506417035318 360,604.9622153810483 370,594.9989839202592 380,585.0602052039421 390,575.1451779145518 400,565.2532383030065 410,555.3837572877391 420,545.5361378430267 430,535.7098126415513 440,525.9042419211058 450,516.1189115495288 460,506.35333126544646 470,496.60703307538245 480,486.87956979029923 490,477.17051368679677 500,467.47945528001867 510,457.8060021969005 520,448.1497781397479 530,438.51042193130513 540,428.887586633492 550,419.28093873286434 560,409.6901573866287 570,400.11493372370626 580,390.55497019593247 590,381.00997997499474 600,371.4796863911622 610,361.96382241026436 620,352.4621301457264 630,342.9743604027866 640,333.5002722522936 650,324.0396326317333 660,314.59221597135377 670,305.1578038434525 680,295.7361846330663 690,286.3271532284648 700,276.930510729983 710,267.546064175864 720,258.17362628388923 730,248.8130152076826 740,239.46405430666528 750,230.1265719287211 760,220.80040120471165 770,211.48537985404812 780,202.1813500005859 790,192.88815799817314 800,183.60565426522805 810,174.33369312777074 820,165.07213267038117 830,155.82083459458772 840,146.57966408423385 850,137.34848967739788 860,128.12718314447477 870,118.91561937205563 880,109.71367625226378 890,100.52123457723462 900,91.33817793844264 910,82.16439263060408 920,72.99976755989599 930,63.84419415625666 940,54.6975662895411 950,45.559780189324556 960,36.430734368158255 970,27.310329548093364 980,18.198468590303833 990,9.095056427645545 1000,0"></path>-->
<path id="chemin2" class="test" d="M 0,1000 1,998.1261825771396 2,996.4812298014798 3,994.9128579128262 4,993.3922357861884 5,991.9061612217997 6,990.4470500948487 7,989.0099866951339 8,987.5915318585761 9,986.1891482599243 10,984.8008891704707 11,983.4252153075884 12,982.0608800921013 13,980.7068541451258 14,979.3622735989555 15,978.0264035369413 16,976.6986114161122 17,975.3783472907161 18,974.0651287973539 19,972.7585295536514 20,971.4581700551636 21,970.1637104342632 22,968.8748446294645 23,967.5912956387317 24,966.3128116168143 25,965.0391626375755 26,963.7701379859077 27,962.5055438755562 28,961.2452015125602 29,959.9889454414912 30,958.736622124855 31,957.4880887161072 32,956.2432119944958 33,955.001867435996 34,953.7639383993514 35,952.529315409994 36,951.2978955276108 37,950.0695817855368 38,948.8442826920921 39,947.6219117855716 40,946.4023872358864 41,945.1856314869207 42,943.9715709345527 43,942.7601356360191 44,941.551259046912 45,940.3448777826159 46,939.1409314014168 47,937.9393622068917 48,936.740115067486 49,935.5431372514597 50,934.3483782756058 51,933.155789766339 52,931.9653253319208 53,930.7769404447308 54,929.5905923326211 55,928.4062398784954 56,927.2238435273546 57,926.0433652001284 58,924.8647682136882 59,923.6880172064994 60,922.513078069424 61,921.3399178812415 62,920.1685048484898 63,918.9988082492737 64,917.8307983807215 65,916.6644465097971 66,915.4997248272072 67,914.3366064041636 68,913.1750651517847 69,912.0150757829375 70,910.8566137763419 71,909.6996553427706 72,908.5441773931962 73,907.3901575087475 74,906.2375739123484 75,905.0864054419237 76,903.9366315250663 77,902.7882321550663 78,901.6411878682152 79,900.4954797222967 80,899.3510892761948 81,898.20799857054 82,897.0661901093362 83,895.9256468425012 84,894.7863521492694 85,893.6482898224006 86,892.5114440531496 87,891.3757994169507 88,890.241340859774 89,889.1080536851168 90,887.9759235415922 91,886.8449364110812 92,885.715078597418 93,884.5863367155781 94,883.458697681341 95,882.332148701404 96,881.2066772639198 97,880.0822711294389 98,878.9589183222329 99,877.8366071219798 100,876.7153260557934 101,875.5950638905778 102,874.4758096256922 103,873.3575524859098 104,872.2402819146548 105,871.1239875675082 106,870.0086593059632 107,868.894287191424 108,867.7808614794333 109,866.6683726141171 110,865.5568112228399 111,864.4461681110579 112,863.3364342573605 113,862.2276008086949 114,861.1196590757625 115,860.0126005285802 116,858.9064167921998 117,857.8010996425792 118,856.6966410025958 119,855.5930329382008 120,854.4902676547033 121,853.3883374931821 122,852.287234927019 123,851.1869525585475 124,850.0874831158138 125,848.988819449444 126,847.8909545296142 127,846.7938814431183 128,845.697593390531 129,844.6020836834615 130,843.5073457418929 131,842.4133730916074 132,841.3201593616897 133,840.2276982821097 134,839.1359836813782 135,838.0450094842747 136,836.9547697096436 137,835.8652584682579 138,834.7764699607446 139,833.6883984755738 140,832.6010383871051 141,831.5143841536924 142,830.4284303158432 143,829.3431714944304 144,828.2586023889563 145,827.1747177758648 146,826.0915125069021 147,825.0089815075229 148,823.9271197753407 149,822.8459223786217 150,821.765384454819 151,820.6855012091479 152,819.6062679131988 153,818.527679903588 154,817.4497325806442 155,816.3724214071304 156,815.2957419069991 157,814.2196896641799 158,813.1442603213998 159,812.0694495790322 160,810.9952531939775 161,809.921666978571 162,808.8486867995188 163,807.7763085768609 164,806.70452828296 165,805.6333419415159 166,804.5627456266034 167,803.4927354617353 168,802.423307618947 169,801.3544583179046 170,800.2861838250335 171,799.2184804526684 172,798.151344558224 173,797.084772543385 174,796.0187608533153 175,794.9533059758855 176,793.8884044409195 177,792.8240528194573 178,791.7602477230355 179,790.6969858029844 180,789.6342637497412 181,788.5720782921779 182,787.5104261969464 183,786.4493042678353 184,785.3887093451443 185,784.3286383050705 186,783.2690880591084 187,782.2100555534639 188,781.1515377684807 189,780.0935317180788 190,779.036034449206 191,777.9790430413002 192,776.9225546057644 193,775.8665662854514 194,774.8110752541609 195,773.7560787161464 196,772.7015739056322 197,771.6475580863416 198,770.5940285510334 199,769.5409826210491 200,768.488417645869 201,767.4363310026778 202,766.3847200959376 203,765.3335823569719 204,764.2829152435556 205,763.2327162395154 206,762.1829828543357 207,761.1337126227751 208,760.0849031044879 209,759.0365518836554 210,757.9886565686221 211,756.9412147915407 212,755.8942242080237 213,754.8476824968006 214,753.8015873593833 215,752.7559365197367 216,751.7107277239559 217,750.66595873995 218,749.621627357131 219,748.5777313861096 220,747.5342686583948 221,746.4912370261019 222,745.4486343616634 223,744.4064585575463 224,743.364707525975 225,742.3233791986576 226,741.2824715265195 227,740.2419824794403 228,739.201910045995 229,738.1622522332013 230,737.1230070662714 231,736.0841725883656 232,735.0457468603539 233,734.0077279605796 234,732.9701139846271 235,731.9329030450951 236,730.8960932713718 237,729.8596828094157 238,728.8236698215399 239,727.7880524861985 240,726.7528289977789 241,725.7179975663969 242,724.6835564176936 243,723.6495037926386 244,722.6158379473345 245,721.582557152825 246,720.5496596949066 247,719.5171438739435 248,718.4850080046854 249,717.4532504160873 250,716.4218694511344 251,715.3908634666682 252,714.3602308332156 253,713.3299699348214 254,712.3000791688833 255,711.270556945989 256,710.2414016897568 257,709.2126118366778 258,708.1841858359617 259,707.1561221493839 260,706.1284192511359 261,705.1010756276778 262,704.0740897775927 263,703.0474602114438 264,702.0211854516338 265,700.9952640322662 266,699.9696944990087 267,698.9444754089595 268,697.9196053305138 269,696.8950828432346 270,695.8709065377241 271,694.8470750154968 272,693.8235868888562 273,692.8004407807709 274,691.7776353247552 275,690.7551691647487 276,689.7330409550004 277,688.7112493599525 278,687.6897930541273 279,686.6686707220144 280,685.6478810579611 281,684.6274227660626 282,683.6072945600561 283,682.5874951632136 284,681.5680233082394 285,680.5488777371659 286,679.5300572012538 287,678.5115604608916 288,677.4933862854971 289,676.4755334534213 290,675.4580007518528 291,674.4407869767222 292,673.4238909326114 293,672.4073114326604 294,671.3910472984779 295,670.375097360052 296,669.3594604556622 297,668.3441354317931 298,667.3291211430493 299,666.3144164520702 300,665.3000202294483 301,664.285931353646 302,663.2721487109156 303,662.2586711952198 304,661.2454977081518 305,660.2326271588593 306,659.2200584639664 307,658.2077905474996 308,657.1958223408125 309,656.1841527825118 310,655.1727808183858 311,654.1617054013323 312,653.1509254912876 313,652.1404400551576 314,651.1302480667482 315,650.1203485066978 316,649.1107403624103 317,648.1014226279888 318,647.0923943041699 319,646.0836543982604 320,645.0752019240722 321,644.0670359018604 322,643.0591553582611 323,642.0515593262301 324,641.0442468449821 325,640.0372169599319 326,639.0304687226343 327,638.0240011907266 328,637.017813427871 329,636.0119045036981 330,635.00627349375 331,634.0009194794256 332,632.9958415479264 333,631.9910387922007 334,630.9865103108925 335,629.9822552082871 336,628.9782725942603 337,627.9745615842255 338,626.9711212990844 339,625.9679508651764 340,624.9650494142281 341,623.9624160833055 342,622.9600500147653 343,621.9579503562068 344,620.9561162604246 345,619.9545468853623 346,618.9532413940665 347,617.9521989546404 348,616.9514187402 349,615.9508999288282 350,614.9506417035318 351,613.950643252198 352,612.9509037675505 353,611.9514224471084 354,610.9521984931429 355,609.9532311126368 356,608.954519517243 357,607.9560629232442 358,606.9578605515121 359,605.9599116274692 360,604.9622153810483 361,603.964771046654 362,602.9675778631254 363,601.9706350736969 364,600.973941925962 365,599.9774976718347 366,598.9813015675152 367,597.9853528734513 368,596.9896508543045 369,595.9941947789134 370,594.9989839202592 371,594.0040175554316 372,593.0092949655932 373,592.0148154359472 374,591.020578255703 375,590.0265827180431 376,589.0328281200912 377,588.0393137628782 378,587.0460389513123 379,586.0530029941451 380,585.0602052039421 381,584.0676448970505 382,583.0753213935691 383,582.0832340173174 384,581.0913820958066 385,580.0997649602084 386,579.1083819453274 387,578.1172323895701 388,577.1263156349178 389,576.1356310268969 390,575.1451779145518 391,574.1549556504161 392,573.1649635904855 393,572.1752010941904 394,571.1856675243687 395,570.1963622472397 396,569.2072846323767 397,568.2184340526819 398,567.2298098843592 399,566.24141150689 400,565.2532383030065 401,564.2652896586675 402,563.2775649630332 403,562.2900636084403 404,561.3027849903785 405,560.3157285074651 406,559.3288935614225 407,558.3422795570534 408,557.3558859022182 409,556.3697120078115 410,555.3837572877391 411,554.3980211588955 412,553.4125030411416 413,552.4272023572819 414,551.4421185330427 415,550.4572509970506 416,549.4725991808107 417,548.488162518685 418,547.5039404478714 419,546.519932408383 420,545.5361378430267 421,544.5525561973833 422,543.5691869197865 423,542.5860294613037 424,541.6030832757148 425,540.6203478194933 426,539.6378225517865 427,538.6555069343959 428,537.6734004317584 429,536.6915025109267 430,535.7098126415513 431,534.7283302958604 432,533.7470549486432 433,532.7659860772301 434,531.7851231614757 435,530.8044656837396 436,529.8240131288701 437,528.8437649841851 438,527.8637207394554 439,526.8838798868874 440,525.9042419211058 441,524.9248063391367 442,523.9455726403903 443,522.9665403266454 444,521.9877089020313 445,521.0090778730126 446,520.0306467483729 447,519.052415039198 448,518.0743822588606 449,517.0965479230044 450,516.1189115495288 451,515.1414726585722 452,514.1642307724982 453,513.1871854158794 454,512.2103361154827 455,511.23368240025434 456,510.25722380130486 457,509.2809598518946 458,508.3048900874193 459,507.3290140453956 460,506.35333126544646 461,505.3778412892875 462,504.4025436607127 463,503.4274379255803 464,502.4525236317996 465,501.47780032931666 466,500.50326757010123 467,499.52892490813304 468,498.5547718993886 469,497.58080810182827 470,496.60703307538245 471,495.6334463819395 472,494.66004758533245 473,493.68683625132616 474,492.7138119476051 475,491.7409742437604 476,490.7683227112777 477,489.7958569235248 478,488.8235764557394 479,487.85148088501694 480,486.87956979029923 481,485.9078427523614 482,484.93629935380125 483,483.96493917902694 484,482.99376181424543 485,482.0227668474515 486,481.0519538684156 487,480.0813224686731 488,479.110872241513 489,478.14060278196655 490,477.17051368679677 491,476.20060455448674 492,475.2308749852299 493,474.26132458091774 494,473.2919529451309 495,472.3227596831274 496,471.3537444018324 497,470.3849067098281 498,469.4162462173433 499,468.4477625362431 500,467.47945528001867 501,466.5113240637776 502,465.5433685042336 503,464.57558821969644 504,463.60798283006295 505,462.6405519568061 506,461.6732952229663 507,460.7062122531414 508,459.7393026734776 509,458.77256611165944 510,457.8060021969005 511,456.83961055993507 512,455.87339083300765 513,454.90734264986474 514,453.94146564574567 515,452.975759457373 516,452.0102237229445 517,451.0448580821236 518,450.079662176031 519,449.1146356472361 520,448.1497781397479 521,447.1850892990067 522,446.2205687718757 523,445.25621620663287 524,444.29203125296146 525,443.32801356194307 526,442.3641627860486 527,441.4004785791302 528,440.43696059641354 529,439.4736084944892 530,438.51042193130513 531,437.5474005661588 532,436.5845440596887 533,435.62185207386744 534,434.6593242719931 535,433.6969603186827 536,432.7347598798633 537,431.7727226227652 538,430.81084821591446 539,429.84913632912503 540,428.887586633492 541,427.9261988013835 542,426.96497250643415 543,426.00390742353727 544,425.04300322883796 545,424.08225959972617 546,423.1216762148291 547,422.1612527540051 548,421.2009888983357 549,420.24088433011934 550,419.28093873286434 551,418.3211517912821 552,417.3615231912803 553,416.4020526199564 554,415.4427397655908 555,414.4835843176403 556,413.5245859667316 557,412.56574440465454 558,411.6070593243561 559,410.64853041993365 560,409.6901573866287 561,408.7319399208204 562,407.77387772001975 563,406.8159704828629 564,405.85821790910484 565,404.90061969961414 566,403.9431755563659 567,402.98588518243605 568,402.02874828199583 569,401.0717645603049 570,400.11493372370626 571,399.1582554796198 572,398.20172953653673 573,397.245355604014 574,396.2891333926681 575,395.3330626141694 576,394.3771429812373 577,393.42137420763333 578,392.4657560081565 579,391.51028809863726 580,390.55497019593247 581,389.5998020179193 582,388.6447832834905 583,387.68991371254845 584,386.73519302600005 585,385.78062094575114 586,384.8261971947021 587,383.87192149674115 588,382.91779357674056 589,381.96381316055056 590,381.00997997499474 591,380.0562937478643 592,379.1027542079139 593,378.1493610848561 594,377.196114109356 595,376.24301301302717 596,375.29005752842613 597,374.3372473890473 598,373.38458232931885 599,372.43206208459696 600,371.4796863911622 601,370.52745498621357 602,369.57536760786434 603,368.6234239951375 604,367.6716238879609 605,366.7199670271625 606,365.7684531544659 607,364.8170820124859 608,363.86585334472386 609,362.91476689556305 610,361.96382241026436 611,361.01301963496167 612,360.0623583166579 613,359.1118382032198 614,358.1614590433744 615,357.21122058670426 616,356.26112258364344 617,355.31116478547256 618,354.3613469443154 619,353.4116688131345 620,352.4621301457264 621,351.5127306967182 622,350.56347022156285 623,349.6143484765356 624,348.6653652187292 625,347.716520206051 626,346.7678131972174 627,345.819243951751 628,344.87081222997654 629,343.92251779301625 630,342.9743604027866 631,342.02633982199427 632,341.078455814132 633,340.130708143475 634,339.1830965750771 635,338.2356208747668 636,337.28828080914377 637,336.3410761455749 638,335.3940066521909 639,334.4470720978816 640,333.5002722522936 641,332.55360688582607 642,331.6070757696267 643,330.66067867558866 644,329.7144153763469 645,328.76828564527455 646,327.8222892564788 647,326.87642598479897 648,325.9306956058009 649,324.9850978957753 650,324.0396326317333 651,323.0942995914032 652,322.14909855322753 653,321.2040292963585 654,320.25909160065646 655,319.3142852466847 656,318.3696100157073 657,317.42506568968554 658,316.4806520512743 659,315.53636888381936 660,314.59221597135377 661,313.6481930985947 662,312.7043000509401 663,311.76053661446576 664,310.81690257592254 665,309.8733977227322 666,308.93002184298496 667,307.98677472543636 668,307.04365615950417 669,306.10066593526517 670,305.1578038434525 671,304.2150696754517 672,303.2724632232987 673,302.32998427967675 674,301.3876326379126 675,300.4454080919743 676,299.5033104364684 677,298.56133946663635 678,297.6194949783519 679,296.6777767681185 680,295.7361846330663 681,294.7947183709488 682,293.8533777801406 683,292.91216265963465 684,291.9710728090389 685,291.030108028574 686,290.0892681190704 687,289.14855288196543 688,288.2079621193009 689,287.26749563372005 690,286.3271532284648 691,285.3869347073737 692,284.44683987487883 693,283.50686853600257 694,282.56702049635624 695,281.6272955621364 696,280.6876935401227 697,279.74821423767503 698,278.8088574627317 699,277.86962302380573 700,276.930510729983 701,275.99152039091996 702,275.0526518168406 703,274.1139048185338 704,273.17527920735165 705,272.2367747952061 706,271.2983913945674 707,270.36012881846045 708,269.4219868804638 709,268.48396539470593 710,267.546064175864 711,266.60828303916037 712,265.670621800361 713,264.733080275773 714,263.7956582822418 715,262.85835563714943 716,261.9211721584119 717,260.9841076644767 718,260.04716197432083 719,259.11033490744876 720,258.17362628388923 721,257.23703592419395 722,256.30056364943493 723,255.36420928120253 724,254.42797264160265 725,253.49185355325505 726,252.55585183929145 727,251.61996732335206 728,250.68419982958505 729,249.74854918264327 730,248.8130152076826 731,247.87759773035964 732,246.9422965768298 733,246.0071115737445 734,245.07204254825035 735,244.1370893279858 736,243.20225174107975 737,242.26752961614955 738,241.3329227822984 739,240.3984310691137 740,239.46405430666528 741,238.52979232550285 742,237.59564495665427 743,236.66161203162358 744,235.72769338238902 745,234.79388884140064 746,233.86019824157916 747,232.9266214163133 748,231.9931581994582 749,231.05980842533347 750,230.1265719287211 751,229.1934485448636 752,228.26043810946226 753,227.32754045867534 754,226.39475542911555 755,225.46208285784928 756,224.5295225823936 757,223.59707444071523 758,222.6647382712281 759,221.73251391279246 760,220.80040120471165 761,219.8683999867319 762,218.93651009903897 763,218.00473138225766 764,217.0730636774491 765,216.14150682611 766,215.21006067016947 767,214.27872505198843 768,213.34749981435777 769,212.41638480049608 770,211.48537985404812 771,210.5544848190833 772,209.62369954009432 773,208.69302386199422 774,207.76245763011605 775,206.83200069021052 776,205.9016528884447 777,204.97141407139964 778,204.0412840860697 779,203.1112627798601 780,202.1813500005859 781,201.25154559646978 782,200.32184941614094 783,199.39226130863346 784,198.46278112338393 785,197.53340871023113 786,196.60414391941345 787,195.67498660156775 788,194.74593660772769 789,193.81699378932194 790,192.88815799817314 791,191.95942908649636 792,191.0308069068966 793,190.10229131236838 794,189.17388215629398 795,188.24557929244122 796,187.31738257496318 797,186.3892918583956 798,185.46130699765558 799,184.53342784804101 800,183.60565426522805 801,182.67798610526984 802,181.7504232245957 803,180.82296548000886 804,179.8956127286856 805,178.96836482817366 806,178.04122163639067 807,177.1141830116228 808,176.1872488125233 809,175.26041889811154 810,174.33369312777074 811,173.4070713612473 812,172.4805534586494 813,171.55413928044527 814,170.62782868746172 815,169.70162154088348 816,168.77551770225102 817,167.84951703345985 818,166.92361939675868 819,165.99782465474868 820,165.07213267038117 821,164.14654330695748 822,163.22105642812676 823,162.2956718978852 824,161.37038958057417 825,160.4452093408795 826,159.52013104383002 827,158.59515455479584 828,157.67027973948802 829,156.74550646395596 830,155.82083459458772 831,154.8962639981072 832,153.971794541574 833,153.0474260923819 834,152.12315851825724 835,151.19899168725794 836,150.2749254677725 837,149.35095972851877 838,148.4270943385419 839,147.50332916721436 840,146.57966408423385 841,145.65609895962245 842,144.73263366372555 843,143.80926806721016 844,142.88600204106433 845,141.9628354565956 846,141.03976818542992 847,140.11680009951067 848,139.19393107109704 849,138.27116097276337 850,137.34848967739788 851,136.4259170582012 852,135.50344298868572 853,134.58106734267403 854,133.65878999429822 855,132.73661081799844 856,131.81452968852182 857,130.8925464809214 858,129.97066107055525 859,129.04887333308488 860,128.12718314447477 861,127.20559038099077 862,126.28409491919899 863,125.36269663596545 864,124.4413954084539 865,123.52019111412585 866,122.59908363073862 867,121.67807283634477 868,120.75715860929131 869,119.83634082821766 870,118.91561937205563 871,117.99499412002797 872,117.0744649516472 873,116.15403174671474 874,115.23369438531995 875,114.31345274783916 876,113.39330671493428 877,112.47325616755234 878,111.553300986924 879,110.63344105456258 880,109.71367625226378 881,108.79400646210365 882,107.87443156643815 883,106.95495144790243 884,106.03556598940918 885,105.11627507414835 886,104.19707858558559 887,103.27797640746155 888,102.35896842379111 889,101.4400545188621 890,100.52123457723462 891,99.60250848373971 892,98.68387612347897 893,97.7653373818232 894,96.84689214441141 895,95.92854029715033 896,95.01028172621318 897,94.0921163180385 898,93.17404395932977 899,92.25606453705461 900,91.33817793844264 901,90.42038405098629 902,89.50268276243867 903,88.58507396081302 904,87.66755753438213 905,86.75013337167718 906,85.83280136148653 907,84.91556139285547 908,83.99841335508518 909,83.0813571377314 910,82.16439263060408 911,81.24751972376646 912,80.3307383075338 913,79.41404827247311 914,78.4974495094018 915,77.58094190938732 916,76.66452536374572 917,75.74819976404115 918,74.8319650020851 919,73.91582096993557 920,72.99976755989599 921,72.08380466451456 922,71.16793217658346 923,70.25214998913782 924,69.33645799545536 925,68.42085608905529 926,67.50534416369692 927,66.58992211338011 928,65.6745898323436 929,64.75934721506428 930,63.84419415625666 931,62.92913055087183 932,62.014156294097006 933,61.09927128135428 934,60.18447540830027 935,59.269768570825136 936,58.35515066505184 937,57.44062158733527 938,56.526181234262026 939,55.61182950264845 940,54.6975662895411 941,53.783391492215856 942,52.869305008176184 943,51.9553067351535 944,51.04139657110568 945,50.127574414216724 946,49.213840162896076 947,48.300193715777596 948,47.386634971718536 949,46.47316382979989 950,45.559780189324556 951,44.646483949817366 952,43.73327501102369 953,42.82015327290924 954,41.90711863565923 955,40.994170999677635 956,40.08131026558647 957,39.16853633422511 958,38.25584910664941 959,37.343248484131436 960,36.430734368158255 961,35.51830666043156 962,34.60596526286713 963,33.69371007759355 964,32.78154100695224 965,31.869457953496067 966,30.957460819989365 967,30.045549509406897 968,29.133723924932838 969,28.221983969961002 970,27.310329548093364 971,26.39876056313949 972,25.487276919116425 973,24.575878520247784 974,23.664565270962385 975,22.75333707589482 976,21.84219383988375 977,20.931135467972013 978,20.0201618654055 979,19.10927293763268 980,18.198468590303833 981,17.287748729271016 982,16.377113260586157 983,15.466562090501952 984,14.556095125470051 985,13.645712272141054 986,12.735413437363832 987,11.825198528184274 988,10.915067451845857 989,10.005020115787943 990,9.095056427645545 991,8.18517629524888 992,7.275379626622566 993,6.365666329985402 994,5.456036313748655 995,4.546489486517203 996,3.6370257570871445 997,2.7276450344465957 998,1.8183472277742112 999,0.9091322464390714 1000,0"></path>
	<path id="courbe" class="courbe" d="M 0,1000 C0,890 0,500 1000,0"></path>
	<path id="courbe" class="courbe" d="M 0,1000 C0,670 0,333 1000,0"></path>
	<path id="courbe" class="courbe" d="M 0,1000 C0,990 0,666.667 1000,0"></path>
	<path id="courbe" class="courbe" d="M 0,1000 C0,1000 0,909.09 1000,0" style="stroke:cyan"></path>
</svg>
