<svg width="402" height="149" version="1.1" viewBox="0 0 804 298" xmlns="http://www.w3.org/2000/svg" xmlns:xlink="http://www.w3.org/1999/xlink">
    <defs>
		<g id="texte">
		    <path d="m206.07 204.81q17.538 0 23.601 11.721 6.0865 11.633 0.58134 32.432-5.3885 20.358-17.869 31.551-12.457 11.104-29.29 11.104-16.128 0-22.637-11.369-6.4208-11.369-1.149-31.286 5.5051-20.799 17.574-32.432 12.18-11.721 29.189-11.721zm-16.736 63.895q5.0234 0 8.7274-4.6709 3.7921-4.6709 6.7779-15.952 2.9625-11.193 1.6845-15.687-1.278-4.4947-6.2133-4.4947-4.8472 0-8.5693 4.4065-3.6988 4.3184-6.7779 15.952-5.4118 20.446 4.3707 20.446z"/>
		    <path d="m271.08 207.63-2.9158 11.016h0.44066q12.605-13.66 25.56-13.66 8.4605 0 11.903 5.6404 3.5305 5.6404 0.98792 15.247l-16.632 62.837h-25.646l13.226-49.97q1.0964-4.1422-0.14271-6.7861t-4.3236-2.6439q-8.1962 0-10.925 10.311l-12.993 49.089h-25.558l21.461-81.08z"/>
		    <path d="m371.87 164.54h25.47l-32.867 124.18h-25.646l2.8225-10.664h-0.35252q-12.094 13.396-22.846 13.396-11.281 0-15.117-11.81-3.7484-11.81 1.4768-31.551 5.2019-19.653 15.355-31.375 10.153-11.721 21.698-11.721 10.488 0 16.105 12.074zm-21.974 83.019q5.2952-20.006-4.3992-20.006-9.9588 0-15.581 21.24-2.496 9.43-1.2283 14.63 1.3791 5.1116 6.1382 5.1116 4.4065 0 8.4086-5.4641 4.002-5.4641 6.6613-15.511z"/>
		    <path d="m417.84 263.95h21.592q-13.4 27.321-38.077 27.321-15.423 0-21.31-11.721-5.8869-11.721-0.4284-32.344 5.0852-19.212 17.13-30.758 12.068-11.633 26.963-11.633 8.9893 0 15.781 5.6404 6.8147 5.5522 8.155 14.806t-3.4909 29.171h-42.743q-4.2532 18.067 5.2649 18.067 3.2608 0 6.4464-2.3795t4.7175-6.1692zm-12.391-23.443h18.596q1.9983-8.5487 0.95621-12.603-1.0188-4.1421-5.6016-4.1421-5.1116 0-8.3646 3.9659t-5.5857 12.779zm7.4383-44.418 19.313-26.351h27.761l-31.299 26.351z"/>
		    <path d="m485.29 207.63-3.5923 13.572h0.35252q13.364-15.864 23.499-15.864 1.4982 0 4.0022 0.52878l-6.6481 25.117q-4.461-0.79318-8.4269-0.79318-14.101 0-18.93 18.243l-10.66 40.276h-25.558l21.461-81.08z"/>
		    <path d="m531.01 288.71 2.8225-10.664h-0.35252q-6.4904 6.8742-11.76 10.135-5.1815 3.2608-11.086 3.2608-11.545 0-15.294-11.81-3.7484-11.81 1.6168-32.08 5.1552-19.477 15.173-31.022 10.018-11.545 21.387-11.545 6.081 0 9.4948 3.0846 3.4372 2.9964 6.2471 9.6944h0.35252l2.6826-10.135h25.646l-21.461 81.08zm10.847-40.981q5.3418-20.182-4.5288-20.182-9.9588 0-15.301 20.182-5.5518 20.975 4.7595 20.975 9.5181 0 15.07-20.975z"/>
		    <path d="m595.57 186.04h25.646l-5.7151 21.592h9.9588l-5.6451 21.328h-10.135l-15.816 59.753h-25.47l15.862-59.929h-9.6944l5.5984-21.151h9.6944z"/>
		    <path d="m634.2 183.31q1.4929-5.6404 6.5085-9.6062 5.0156-3.9659 10.568-3.9659 5.6404 0 8.5565 3.9659 2.9162 3.9659 1.4233 9.6062-1.4696 5.5522-6.5085 9.6062-5.0156 3.9659-10.656 3.9659-5.4641 0-8.4684-3.9659-2.8928-4.054-1.4233-9.6062zm-5.7331 24.324h25.646l-21.461 81.08h-25.646z"/>
		    <path d="m694.8 204.81q17.538 0 23.601 11.721 6.0865 11.633 0.58134 32.432-5.3885 20.358-17.869 31.551-12.457 11.104-29.29 11.104-16.128 0-22.637-11.369-6.4208-11.369-1.149-31.286 5.5051-20.799 17.574-32.432 12.18-11.721 29.189-11.721zm-16.736 63.895q5.0234 0 8.7274-4.6709 3.7921-4.6709 6.7779-15.952 2.9625-11.193 1.6845-15.687-1.278-4.4947-6.2133-4.4947-4.8472 0-8.5693 4.4065-3.6988 4.3184-6.7779 15.952-5.4118 20.446 4.3707 20.446z"/>
		    <path d="m759.82 207.63-2.9158 11.016h0.4407q12.605-13.66 25.56-13.66 8.4606 0 11.903 5.6404 3.5305 5.6404 0.98787 15.247l-16.632 62.837h-25.646l13.226-49.97q1.0964-4.1422-0.14274-6.7861-1.239-2.6439-4.3236-2.6439-8.1962 0-10.925 10.311l-12.993 49.089h-25.558l21.461-81.08z"/>
		</g>
		<g id="logo">
			<path d="m92.614 6.25-9.9414 37.105c10.232-1.7199 20.631-2.0864 30.912-0.78711z"/>
			<path d="m100.81 54.105c-41.775-0.4386-80.077 27.253-91.402 69.508-2.3e-4 1e-3 2.5e-4 3e-3 0 4e-3l-2e-3 4e-3c-7.6325 28.659-1.1669 58.938 16.869 81.932l19.354-72.225c8.0213-29.936 38.957-47.797 68.893-39.775 29.936 8.0213 47.795 38.957 39.773 68.893-7.474 27.893-34.843 45.278-62.76 41.035l-9.7188 36.275c48.08 9.5482 95.827-19.56 108.7-67.605 13.42-50.084-16.207-101.4-66.291-114.82-7.8252-2.0968-15.68-3.1434-23.416-3.2246z"/>
			<path d="m99.128 104.3c-19.03 0.29281-36.247 12.919-41.43 32.26l-40.756 152.1h38.824l49.314-184.04c-1.9961-0.23989-3.9845-0.34279-5.9531-0.3125z"/>
		</g>
    </defs>
	<g>
		<use xlink:href="#logo" transform="translate(0, 0)" fill="darkred"></use>
        <use xlink:href="#texte" transform="translate(-4, -56)" fill="black"></use>
        <use xlink:href="#texte" transform="translate(0, -60)" fill="#63a"></use>
	</g>
</svg>
