<svg width="48" height="48" version="1.1" viewBox="0 0 48 48" xmlns="http://www.w3.org/2000/svg" xmlns:xlink="http://www.w3.org/1999/xlink">
	<symbol id="original" viewBox="0 0 48 48" transform="translate(-18 -18)">
		<path d="m39.998 23.766a16 16 0 0 0-4.6834-11.08l-11.314-11.312-11.314 11.312a16 16 0 0 0 0 22.628l11.314 11.312 11.314-11.312a16 16 0 0 0 4.6834-11.548zm-5.9978 0.08789a10 10 0 0 1-2.9296 7.2165 10 10 0 0 1-14.14 0 10 10 0 0 1 0-14.14 10 10 0 0 1 14.14 0 10 10 0 0 1 2.9296 6.9236z"/>
	</symbol>
	<symbol id="pondere" viewBox="0 0 48 48" transform="translate(-18 -18)">
		<path d="m24.234 39.998a16 16 0 0 0 11.08-4.6834l11.312-11.314-11.312-11.314a16 16 0 0 0-22.628 0l-11.312 11.314 11.312 11.314a16 16 0 0 0 11.548 4.6834zm-0.08789-5.9978a10 10 0 0 1-7.2165-2.9296 10 10 0 0 1 0-14.14 10 10 0 0 1 14.14 0 10 10 0 0 1 0 14.14 10 10 0 0 1-6.9236 2.9296z"/>
	</symbol>
	<symbol id="reference" viewBox="0 0 48 48" transform="translate(-18 -18)">
		<path d="m23.766 8.0017a16 16 0 0 0-11.08 4.6834 16 16 0 0 0 0 22.628 16 16 0 0 0 22.628 0 16 16 0 0 0 4.6834-11.548 16 16 0 0 0-4.6834-11.08 16 16 0 0 0-11.548-4.6834zm-4.3885 7.1326 4.6229 4.6229 4.6229-4.6229a10 10 0 0 1 2.4472 1.7949 10 10 0 0 1 1.7929 2.4491l-4.6209 4.6209 4.6151 4.6151a10 10 0 0 1-1.787 2.455 10 10 0 0 1-2.4491 1.7929l-4.6209-4.6209-4.6151 4.6151a10 10 0 0 1-2.455-1.787 10 10 0 0 1-1.7929-2.4491l4.6209-4.6209-4.6151-4.6151a10 10 0 0 1 1.787-2.455 10 10 0 0 1 2.4472-1.7949z"/>
	</symbol>
</svg>
